<svg width="346" height="88" viewBox="0 0 346 88" fill="none" xmlns="http://www.w3.org/2000/svg">
<path d="M5.87364 56.1465C3.78295 55.4328 1.50959 56.5491 0.795905 58.6398C0.082251 60.7305 1.19855 63.0039 3.28923 63.7176L5.87364 56.1465ZM321.068 1.38197C319.602 -0.270635 317.074 -0.421881 315.422 1.04414L288.491 24.9343C286.838 26.4004 286.687 28.9285 288.153 30.5811C289.619 32.2337 292.147 32.3849 293.8 30.9189L317.738 9.68319L338.974 33.6215C340.44 35.2741 342.968 35.4254 344.621 33.9593C346.273 32.4933 346.425 29.9652 344.959 28.3126L321.068 1.38197ZM3.28923 63.7176C55.8383 81.6555 133.339 91.9202 198.562 85.5353C231.161 82.3441 261.059 74.9608 283.296 62.005C305.66 48.975 320.523 30.1174 322.069 4.27531L314.083 3.79755C312.737 26.293 299.972 43.0302 279.268 55.0926C258.438 67.2293 229.83 74.4361 197.782 77.5734C133.711 83.8455 57.3566 73.7205 5.87364 56.1465L3.28923 63.7176Z" fill="#87680E"/>
</svg>