<svg width="91" height="209" viewBox="0 0 91 209" fill="none" xmlns="http://www.w3.org/2000/svg">
<path d="M59.6469 202.51C58.7474 204.528 59.6539 206.892 61.6716 207.792C63.6894 208.691 66.0542 207.785 66.9537 205.767L59.6469 202.51ZM1.21178 26.9413C-0.35012 28.5036 -0.349808 31.0363 1.21248 32.5982L26.6715 58.0509C28.2338 59.6128 30.7664 59.6125 32.3283 58.0502C33.8902 56.4879 33.8899 53.9552 32.3276 52.3933L9.69741 29.7687L32.322 7.1385C33.8839 5.57621 33.8836 3.04355 32.3213 1.48165C30.759 -0.080258 28.2264 -0.0799453 26.6645 1.48234L1.21178 26.9413ZM66.9537 205.767C80.3616 175.691 94.329 131.297 90.2795 94.1006C88.2429 75.393 81.6063 58.1582 67.6937 45.6305C53.7772 33.0993 33.123 25.7658 4.04006 25.7694L4.04105 33.7694C31.8113 33.766 50.322 40.7534 62.3404 51.5754C74.3626 62.4009 80.4306 77.5517 82.3265 94.9664C86.1421 130.014 72.8862 172.812 59.6469 202.51L66.9537 205.767Z" fill="#87680E"/>
</svg>
