<svg width="213" height="101" viewBox="0 0 213 101" fill="none" xmlns="http://www.w3.org/2000/svg">
<path d="M210.574 76.053C212.448 74.8837 213.02 72.4164 211.851 70.5421C210.681 68.6677 208.214 68.0962 206.34 69.2654L210.574 76.053ZM15.0039 0.127968C12.8654 -0.426293 10.6825 0.857967 10.1282 2.99645L1.09602 37.845C0.541762 39.9834 1.82602 42.1663 3.9645 42.7206C6.10298 43.2749 8.28587 41.9906 8.84013 39.8521L16.8688 8.87566L47.8452 16.9043C49.9837 17.4586 52.1666 16.1743 52.7209 14.0358C53.2751 11.8973 51.9909 9.71445 49.8524 9.16019L15.0039 0.127968ZM206.34 69.2654C185.427 82.3118 156.63 96.4577 124.129 92.1701C91.8438 87.9112 54.6862 65.2667 17.4479 1.97171L10.5527 6.02835C48.5177 70.5587 87.4894 95.406 123.082 100.101C158.459 104.768 189.289 89.3311 210.574 76.053L206.34 69.2654Z" fill="#87680E"/>
</svg>
