<svg width="85" height="50" viewBox="0 0 85 50" fill="#F0ECE6" xmlns="http://www.w3.org/2000/svg">
<path fill-rule="evenodd" clip-rule="evenodd" d="M23.4909 1.09392e-06H0.380911C0.314131 -0.000159123 0.248486 0.0172826 0.190592 0.0505697C0.132698 0.0838558 0.0845986 0.131812 0.051138 0.189607C0.0176774 0.2474 4.01227e-05 0.312992 6.83658e-08 0.379773C-3.9986e-05 0.446554 0.017521 0.512167 0.050911 0.570001L6.99091 12.57C7.01834 12.6226 7.05803 12.6679 7.10662 12.702C7.15522 12.7361 7.21131 12.7579 7.27014 12.7658C7.32897 12.7736 7.38883 12.7672 7.44466 12.7471C7.50049 12.7269 7.55065 12.6936 7.59091 12.65L23.7709 0.650002C23.8205 0.594567 23.8533 0.526095 23.8653 0.452661C23.8772 0.379228 23.868 0.303899 23.8385 0.235565C23.8091 0.167231 23.7607 0.108743 23.6991 0.0670043C23.6375 0.0252649 23.5653 0.00201621 23.4909 1.09392e-06ZM66.6909 1.73064e-05H83.8109C83.8806 0.00332751 83.9476 0.0279886 84.0027 0.0706541C84.0579 0.11332 84.0987 0.171926 84.1194 0.238524C84.1401 0.305121 84.1399 0.376487 84.1187 0.442943C84.0975 0.509398 84.0564 0.567726 84.0009 0.610017L76.8309 5.89002L55.5409 49.14H50.5409L47.2609 43.41L39.0009 29L29.1109 49.1H24.1109L11.5609 27.19H15.0509L22.3609 40L40.2309 1.73064e-05H57.3509C57.4223 -0.000693181 57.4921 0.0210716 57.5504 0.0622283C57.6087 0.103384 57.6525 0.161844 57.6758 0.229325C57.699 0.296807 57.7004 0.369888 57.6798 0.438214C57.6592 0.50654 57.6176 0.566647 57.5609 0.610017L50.3709 5.89002L39.9009 27.19H41.5109L48.8209 40L66.6909 1.73064e-05Z" fill="#F0ECE6"/>
</svg>
