<svg xmlns="http://www.w3.org/2000/svg" xml:space="preserve" width="530px" height="93px" version="1.1" style="shape-rendering:geometricPrecision; text-rendering:geometricPrecision; image-rendering:optimizeQuality; fill-rule:evenodd; clip-rule:evenodd"
viewBox="0 0 7.37 1.3">
   <path class="fil0" d="M1.61 0l-0.33 0 -0.34 0.77 -0.14 -0.25 -0.03 0 0.2 -0.41 0.13 -0.1c0,0 0.01,0 0.01,0 0,0 0,0 0,-0.01 0,0 -0.01,0 -0.01,0 0,0 0,0 0,0l-0.33 0 -0.34 0.77 -0.14 -0.25 -0.07 0 0.24 0.42 0.1 0 0.19 -0.38 0.16 0.27 0.06 0.11 0.1 0 0.4 -0.83 0.14 -0.1c0,0 0,0 0,0 0,0 0,0 0,-0.01 0,0 0,0 0,0 0,0 0,0 0,0zm1.81 0.08l0.08 0.1 0 0.65 -0.08 0.1 0 0.01 0.37 0c0.06,0 0.12,0 0.17,-0.01 0.05,0 0.09,-0.02 0.13,-0.04 0.03,-0.01 0.06,-0.04 0.08,-0.07 0.02,-0.03 0.03,-0.07 0.03,-0.11 0,-0.03 -0.01,-0.05 -0.02,-0.08 -0.01,-0.02 -0.03,-0.05 -0.05,-0.06 -0.02,-0.02 -0.05,-0.04 -0.08,-0.05 -0.03,-0.02 -0.07,-0.03 -0.1,-0.03 0.03,-0.01 0.06,-0.02 0.09,-0.03 0.02,-0.02 0.05,-0.03 0.07,-0.05 0.01,-0.01 0.01,-0.02 0.02,-0.04 0.03,0.05 0.06,0.09 0.08,0.14l0.2 0.46 -0.03 0.11c-0.01,0.02 -0.02,0.03 -0.03,0.03 -0.02,0.01 -0.03,0.01 -0.04,0.02 -0.02,0 -0.03,0.01 -0.05,0.01 -0.01,0 -0.03,0 -0.04,0 -0.01,0.01 -0.02,0.01 -0.03,0.01l-0.01 0c-0.01,0 -0.02,0 -0.03,0l0 0.01 0.08 0.14c0.01,-0.01 0.02,-0.01 0.03,-0.02 0.02,-0.01 0.04,-0.03 0.05,-0.05 0.02,-0.03 0.04,-0.05 0.06,-0.09 0.01,-0.02 0.03,-0.06 0.04,-0.09 0.01,-0.03 0.02,-0.06 0.03,-0.09l0.23 -0.55 0.1 -0.07 0 -0.01 -0.19 0 0 0.01 0.06 0.08 -0.11 0.26c0,0.01 0,0.01 -0.01,0.02 0,0 -0.01,0 -0.01,0 -0.01,0 -0.02,0 -0.02,0 -0.01,-0.01 -0.01,-0.01 -0.01,-0.02l-0.11 -0.27 0.11 -0.07 0 -0.01 -0.33 0c0,-0.02 0.01,-0.03 0.01,-0.05 0,-0.03 -0.01,-0.06 -0.02,-0.08 -0.02,-0.03 -0.04,-0.05 -0.06,-0.07 -0.03,-0.02 -0.06,-0.03 -0.1,-0.04 -0.04,-0.01 -0.09,-0.02 -0.14,-0.02l-0.42 0 0 0.01zm0.44 0.38c-0.02,0.01 -0.05,0.02 -0.08,0.02l-0.08 0 0 -0.37 0.09 0c0.02,-0.01 0.05,0 0.07,0.01 0.02,0.01 0.04,0.02 0.06,0.04 0.01,0.01 0.02,0.03 0.02,0.06 0.01,0.02 0.01,0.04 0.01,0.07 0,0.02 0,0.05 -0.01,0.07 0,0.03 -0.01,0.05 -0.03,0.06 -0.01,0.02 -0.03,0.03 -0.05,0.04zm-0.08 0.45l-0.08 0 0 -0.4 0.09 0c0.03,0 0.06,0 0.09,0.01 0.02,0.01 0.04,0.02 0.06,0.04 0.01,0.02 0.03,0.04 0.03,0.07 0.01,0.02 0.01,0.05 0.01,0.08 0,0.03 0,0.06 -0.01,0.08 -0.01,0.03 -0.02,0.05 -0.03,0.07 -0.02,0.02 -0.04,0.03 -0.07,0.04 -0.03,0.01 -0.06,0.01 -0.09,0.01zm-1.74 -0.58c0.06,0 0.11,-0.05 0.11,-0.1 0,-0.06 -0.05,-0.11 -0.11,-0.11 -0.06,0 -0.1,0.05 -0.1,0.11 0,0.05 0.04,0.1 0.1,0.1zm0.59 0.54c0.02,0 0.04,-0.01 0.05,-0.02l0.01 0.01c-0.01,0.01 -0.02,0.03 -0.04,0.04 -0.01,0.01 -0.03,0.02 -0.04,0.03 -0.02,0.01 -0.04,0.01 -0.06,0.02 -0.02,0 -0.04,0.01 -0.07,0.01 -0.02,0 -0.04,-0.01 -0.07,-0.02 -0.02,0 -0.04,-0.01 -0.05,-0.03 -0.02,-0.01 -0.03,-0.03 -0.04,-0.05 -0.01,-0.02 -0.02,-0.05 -0.02,-0.08l0 -0.35c0,-0.02 0,-0.04 -0.02,-0.05 -0.01,-0.02 -0.03,-0.02 -0.05,-0.02l0 -0.01 0.25 -0.18 0.01 0 0 0.13c0,0 0,0.01 0.01,0.02 0.01,0.01 0.02,0.01 0.03,0.01l0.14 0 0 0.03 -0.18 0 0 0.43c0,0.02 0,0.05 0.02,0.07 0.01,0.01 0.02,0.01 0.03,0.02 0.01,0 0.02,0 0.03,0 0.02,0 0.04,0 0.06,-0.01zm-0.47 -0.01l0 -0.46 -0.01 0 -0.25 0.18 0 0.01c0.05,0 0.08,0 0.08,0.04l0 0.23 -0.06 0.05 -0.02 0.02 0 0.01 0.34 0 0 -0.01 -0.08 -0.07zm-0.31 -0.55c0.01,0 0.02,0 0.03,0.01 0,0 0.01,0 0.02,0l-0.03 0.2 -0.01 0c-0.01,-0.01 -0.01,-0.02 -0.02,-0.04 -0.01,-0.01 -0.02,-0.02 -0.03,-0.03 -0.01,0 -0.03,-0.01 -0.04,-0.02 -0.01,0 -0.03,-0.01 -0.04,-0.01 -0.02,0 -0.03,0.01 -0.05,0.02 -0.01,0 -0.02,0.01 -0.03,0.02l0 0.4 0.01 0.01 0.07 0.06 0 0.01 -0.34 0 0 -0.01 0.07 -0.07 0 -0.29c0,-0.02 0,-0.04 -0.02,-0.05 -0.01,-0.02 -0.03,-0.03 -0.05,-0.03l0 0 0.25 -0.18 0.01 0 0 0.12c0.01,-0.01 0.02,-0.03 0.03,-0.04 0.02,-0.02 0.04,-0.03 0.05,-0.04 0.02,-0.01 0.04,-0.02 0.06,-0.03 0.02,0 0.04,-0.01 0.06,-0.01zm4.61 0.1l-0.34 0.23c0.01,0.08 0.03,0.11 0.06,0.15 0.02,0.02 0.04,0.04 0.07,0.05 0.02,0.01 0.05,0.02 0.08,0.02 0.01,0 0.03,0 0.05,-0.01 0.01,0 0.03,0 0.04,-0.01 0.02,-0.01 0.03,-0.01 0.04,-0.02 0.01,-0.01 0.03,-0.01 0.03,-0.02l0.01 0.01c-0.01,0.02 -0.03,0.04 -0.04,0.06 -0.02,0.02 -0.04,0.03 -0.07,0.05 -0.02,0.01 -0.04,0.02 -0.07,0.02 -0.03,0.01 -0.06,0.02 -0.09,0.02 -0.04,0 -0.08,-0.01 -0.12,-0.03 -0.04,-0.01 -0.07,-0.03 -0.09,-0.06 -0.03,-0.03 -0.05,-0.06 -0.06,-0.1 -0.02,-0.04 -0.02,-0.08 -0.02,-0.12 0,-0.05 0,-0.09 0.02,-0.14 0.01,-0.04 0.03,-0.07 0.06,-0.1 0.03,-0.03 0.06,-0.05 0.1,-0.07 0.04,-0.02 0.08,-0.02 0.13,-0.02 0.04,0 0.07,0 0.11,0.02 0.03,0.01 0.06,0.03 0.09,0.06l0.01 0.01zm-0.34 0.23c0,0.01 0,0.01 0,0.01l0 -0.01zm0.2 -0.2c0,-0.02 0,-0.03 -0.01,-0.04 0,-0.02 -0.02,-0.03 -0.03,-0.04 -0.01,-0.01 -0.03,-0.02 -0.04,-0.02 -0.02,0 -0.04,0.01 -0.05,0.02 -0.01,0.01 -0.03,0.03 -0.03,0.05 -0.01,0.02 -0.02,0.05 -0.03,0.07 0,0.03 0,0.07 -0.01,0.1l0.2 -0.14 0 0zm-3.45 0.2l0.33 -0.23 -0.01 -0.01c-0.02,-0.03 -0.05,-0.05 -0.08,-0.06 -0.04,-0.02 -0.08,-0.02 -0.12,-0.02 -0.04,0 -0.08,0 -0.12,0.02 -0.04,0.02 -0.07,0.04 -0.1,0.07 -0.03,0.03 -0.05,0.06 -0.07,0.1 -0.01,0.05 -0.02,0.09 -0.02,0.14 0,0.04 0.01,0.08 0.02,0.12 0.01,0.04 0.03,0.07 0.06,0.1 0.03,0.03 0.06,0.05 0.09,0.06 0.04,0.02 0.08,0.03 0.13,0.03 0.03,0 0.06,-0.01 0.09,-0.02 0.02,0 0.05,-0.01 0.07,-0.02 0.02,-0.02 0.04,-0.03 0.06,-0.05 0.02,-0.02 0.03,-0.04 0.05,-0.06l-0.01 -0.01c-0.01,0.01 -0.02,0.01 -0.03,0.02 -0.01,0.01 -0.03,0.01 -0.04,0.02 -0.02,0.01 -0.03,0.01 -0.05,0.01 -0.01,0.01 -0.03,0.01 -0.05,0.01 -0.03,0 -0.05,-0.01 -0.08,-0.02 -0.02,-0.01 -0.05,-0.03 -0.06,-0.05 -0.04,-0.04 -0.06,-0.07 -0.06,-0.15zm0 0c0,0.01 0,0.01 0,0.01l0 -0.01zm0.19 -0.24c0,0.01 0,0.02 0,0.04l-0.19 0.14c0,-0.03 0,-0.07 0.01,-0.1 0,-0.02 0.01,-0.05 0.02,-0.07 0.01,-0.02 0.02,-0.04 0.04,-0.05 0.01,-0.01 0.03,-0.02 0.04,-0.02 0.02,0 0.03,0.01 0.05,0.02 0.01,0.01 0.02,0.02 0.03,0.04zm2.88 0.54l-0.41 0 0 -0.01 0.14 -0.1 0 -0.6 -0.31 0.63c0,0 0,0.01 -0.01,0.01 0,0 0,0 -0.01,0.01 -0.01,0 -0.01,0 -0.02,-0.01 -0.01,0 -0.01,0 -0.02,-0.01l-0.3 -0.63 0 0.59 0.09 0.11 0 0.01 -0.26 0 0 -0.01 0.14 -0.1 0 -0.52c0,-0.08 -0.03,-0.16 -0.09,-0.22l0 -0.01 0.26 0 0.28 0.58 0.28 -0.58 0.3 0 0 0.01 -0.14 0.1 0 0.64 0.08 0.1 0 0.01zm0.83 -0.15c0.02,0.06 -0.02,0.12 -0.09,0.14 -0.06,0.01 -0.12,-0.03 -0.14,-0.09 -0.01,-0.06 0.03,-0.13 0.09,-0.14 0.06,-0.02 0.13,0.02 0.14,0.09zm-6.32 -0.79l-0.44 0c0,0 -0.01,0 -0.01,0 0,0 0,0 0,0 0,0 0,0.01 0,0.01 0,0 0,0 0,0l0.13 0.23c0,0 0.01,0 0.01,0 0,0 0,0 0,0 0,0 0,0 0,0 0,0 0,0 0.01,0l0.31 -0.23c0,0 0,0 0,0 0,0 0,0 0,-0.01 0,0 0,0 -0.01,0 0,0 0,0 0,0z"/>
   <path class="fil1" d="M7.05 0.38l0 -0.3 0.08 0 0.08 0.23 0.09 -0.23 0.07 0 0 0.3 -0.05 0 0 -0.17c0,-0.01 0,-0.02 0,-0.03 0,-0.02 0,-0.03 0,-0.03l0 0 -0.09 0.23 -0.04 0 -0.09 -0.23 0 0c0,0.01 0,0.02 0,0.03 0,0.01 0,0.02 0,0.02l0 0.18 -0.05 0zm-0.17 0l0 -0.26 -0.09 0 0 -0.04 0.23 0 0 0.04 -0.09 0 0 0.26 -0.05 0z"/>
</svg>
