<svg width="10" height="10" viewBox="0 0 10 10" fill="none" xmlns="http://www.w3.org/2000/svg">
<path d="M6.28516 4.75L9.23828 1.82422C9.40234 1.66016 9.40234 1.35938 9.23828 1.19531L8.55469 0.511719C8.39062 0.347656 8.08984 0.347656 7.92578 0.511719L5 3.46484L2.04688 0.511719C1.88281 0.347656 1.58203 0.347656 1.41797 0.511719L0.734375 1.19531C0.570312 1.35938 0.570312 1.66016 0.734375 1.82422L3.6875 4.75L0.734375 7.70312C0.570312 7.86719 0.570312 8.16797 0.734375 8.33203L1.41797 9.01562C1.58203 9.17969 1.88281 9.17969 2.04688 9.01562L5 6.0625L7.92578 9.01562C8.08984 9.17969 8.39062 9.17969 8.55469 9.01562L9.23828 8.33203C9.40234 8.16797 9.40234 7.86719 9.23828 7.70312L6.28516 4.75Z" fill="#afafaf"/>
</svg>
