<svg width="18" height="21" viewBox="0 0 18 21" fill="none" xmlns="http://www.w3.org/2000/svg">
<path d="M17.1641 2.9823L15.1719 0.990112C14.8203 0.63855 14.3516 0.404175 13.8438 0.404175H7.125C6.07031 0.404175 5.25 1.26355 5.25 2.27917V4.15417H2.125C1.07031 4.15417 0.25 5.01355 0.25 6.02917V18.5292C0.25 19.5839 1.07031 20.4042 2.125 20.4042H10.875C11.8906 20.4042 12.75 19.5839 12.75 18.5292V16.6542H15.875C16.8906 16.6542 17.75 15.8339 17.75 14.7792V4.31042C17.75 3.80261 17.5156 3.33386 17.1641 2.9823ZM14 1.69324C14.0781 1.7323 14.1953 1.77136 14.2734 1.84949L16.3047 3.88074C16.3828 3.95886 16.4219 4.07605 16.4609 4.15417H14V1.69324ZM11.5 18.5292C11.5 18.8807 11.1875 19.1542 10.875 19.1542H2.125C1.77344 19.1542 1.5 18.8807 1.5 18.5292V6.02917C1.5 5.71667 1.77344 5.40417 2.125 5.40417H5.25V14.7792C5.25 15.8339 6.07031 16.6542 7.125 16.6542H11.5V18.5292ZM16.5 14.7792C16.5 15.1307 16.1875 15.4042 15.875 15.4042H7.125C6.77344 15.4042 6.5 15.1307 6.5 14.7792V2.27917C6.5 1.96667 6.77344 1.65417 7.125 1.65417H12.75V4.46667C12.75 5.01355 13.1406 5.40417 13.6875 5.40417H16.5V14.7792Z" fill="#1B1B1B"/>
</svg>
