<svg width="10" height="19" viewBox="0 0 10 19" fill="none" xmlns="http://www.w3.org/2000/svg">
<path d="M7.8125 13.2227V7.5625C7.8125 7.03516 7.53125 6.54297 7.14453 6.22656C7.88281 5.62891 8.375 4.67969 8.375 3.625C8.375 1.79688 6.82812 0.25 5 0.25C3.13672 0.25 1.625 1.79688 1.625 3.625C1.625 4.50391 1.94141 5.3125 2.46875 5.875C1.51953 5.875 0.78125 6.64844 0.78125 7.5625V9.25C0.78125 10.0938 1.37891 10.7969 2.1875 10.9375V13.2227C1.37891 13.3633 0.78125 14.0664 0.78125 14.875V16.5625C0.78125 17.5117 1.51953 18.25 2.46875 18.25H7.53125C8.44531 18.25 9.21875 17.5117 9.21875 16.5625V14.875C9.21875 14.0664 8.58594 13.3633 7.8125 13.2227ZM5 1.375C6.23047 1.375 7.25 2.39453 7.25 3.625C7.25 4.89062 6.23047 5.875 5 5.875C3.73438 5.875 2.75 4.89062 2.75 3.625C2.75 2.39453 3.73438 1.375 5 1.375ZM8.09375 16.5625C8.09375 16.8789 7.8125 17.125 7.53125 17.125H2.46875C2.15234 17.125 1.90625 16.8789 1.90625 16.5625V14.875C1.90625 14.5938 2.15234 14.3125 2.46875 14.3125H3.3125V9.8125H2.46875C2.15234 9.8125 1.90625 9.56641 1.90625 9.25V7.5625C1.90625 7.28125 2.15234 7 2.46875 7H6.125C6.40625 7 6.6875 7.28125 6.6875 7.5625V14.3125H7.53125C7.8125 14.3125 8.09375 14.5938 8.09375 14.875V16.5625Z" fill="#1B1B1B"/>
</svg>
