<svg width="22" height="21" viewBox="0 0 22 21" fill="none" xmlns="http://www.w3.org/2000/svg">
<path d="M21 3.46875L18.6562 1.125C18.2266 0.734375 17.7188 0.5 17.1719 0.5C16.6641 0.5 16.1953 0.695312 15.8438 1.04688L4.67188 10.7344C4.28125 11.0859 4.125 11.6719 4.28125 12.1797L4.75 13.7812L3.34375 15.1875C3.07031 15.4609 3.07031 15.8906 3.34375 16.1641L0.375 19.25L4.24219 20.5L5.96094 18.7812V18.8203C6.23438 19.0547 6.66406 19.0547 6.9375 18.8203L8.34375 17.375L9.94531 17.8828C10.6484 18.0781 11.1953 17.6875 11.3906 17.4531L21.0781 6.28125C21.8203 5.5 21.7812 4.25 21 3.46875ZM3.92969 19.0938L2.64062 18.7031L4.24219 17.0625L5.10156 17.9219L3.92969 19.0938ZM10.4531 16.6328C10.4141 16.6719 10.375 16.6719 10.3359 16.6719L8.73438 16.1641L7.99219 15.9688L6.46875 17.4922L4.63281 15.6953L6.15625 14.1328L5.96094 13.3906L5.45312 11.7891C5.45312 11.75 5.45312 11.7109 5.49219 11.6719L7.25 10.1484L11.9766 14.875L10.4531 16.6328ZM20.1406 5.46094L12.7969 13.9375L8.1875 9.32812L16.6641 1.98438C16.8203 1.82812 17.3281 1.59375 17.7578 2.02344L20.1016 4.36719C20.4141 4.67969 20.4531 5.14844 20.1406 5.46094Z" fill="#1B1B1B"/>
</svg>
