<svg width="16" height="15" viewBox="0 0 16 15" fill="none" xmlns="http://www.w3.org/2000/svg">
<path d="M15.1875 6.5625H8.9375V0.3125C8.9375 0.15625 8.78125 0 8.625 0H7.375C7.17969 0 7.0625 0.15625 7.0625 0.3125V6.5625H0.8125C0.617188 6.5625 0.5 6.71875 0.5 6.875V8.125C0.5 8.32031 0.617188 8.4375 0.8125 8.4375H7.0625V14.6875C7.0625 14.8828 7.17969 15 7.375 15H8.625C8.78125 15 8.9375 14.8828 8.9375 14.6875V8.4375H15.1875C15.3438 8.4375 15.5 8.32031 15.5 8.125V6.875C15.5 6.71875 15.3438 6.5625 15.1875 6.5625Z" fill="#1B1B1B"/>
</svg>
