<svg width="20" height="21" viewBox="0 0 20 21" fill="none" xmlns="http://www.w3.org/2000/svg">
<path d="M10 0.8125C4.64844 0.8125 0.3125 5.14844 0.3125 10.5C0.3125 15.8516 4.64844 20.1875 10 20.1875C15.3516 20.1875 19.6875 15.8516 19.6875 10.5C19.6875 5.14844 15.3516 0.8125 10 0.8125ZM10 18.9375C5.3125 18.9375 1.5625 15.1875 1.5625 10.5C1.5625 5.85156 5.3125 2.0625 10 2.0625C14.6484 2.0625 18.4375 5.85156 18.4375 10.5C18.4375 15.1875 14.6484 18.9375 10 18.9375ZM6.875 9.875C7.53906 9.875 8.125 9.32812 8.125 8.625C8.125 7.96094 7.53906 7.375 6.875 7.375C6.17188 7.375 5.625 7.96094 5.625 8.625C5.625 9.32812 6.17188 9.875 6.875 9.875ZM13.125 7.375C12.4219 7.375 11.875 7.96094 11.875 8.625C11.875 9.32812 12.4219 9.875 13.125 9.875C13.7891 9.875 14.375 9.32812 14.375 8.625C14.375 7.96094 13.7891 7.375 13.125 7.375ZM10 11.75C8.4375 11.75 5.97656 12.6875 5.625 14.6797C5.54688 15.1094 5.70312 15.5391 6.01562 15.8125C6.36719 16.125 6.79688 16.2031 7.22656 16.0859C8.35938 15.7344 9.41406 15.5 10 15.5C10.5469 15.5 11.6016 15.7344 12.7344 16.0859C13.0469 16.1641 13.5156 16.2031 13.9453 15.8125C14.2578 15.5391 14.4141 15.1094 14.3359 14.6797C13.9844 12.6875 11.5234 11.75 10 11.75ZM10 14.25C9.29688 14.25 8.16406 14.4844 6.875 14.875C7.07031 13.7422 8.82812 13 10 13C11.1328 13 12.8906 13.7422 13.125 14.875C11.7969 14.4844 10.6641 14.25 10 14.25Z" fill="#1B1B1B"/>
</svg>
