<svg width="20" height="21" viewBox="0 0 20 21" fill="none" xmlns="http://www.w3.org/2000/svg">
<path d="M19.375 11.6719C19.7656 11.1641 20 10.5 20 9.71875C19.9609 8.23438 18.7109 6.86719 17.1484 6.86719H14.4141C14.7266 6.20312 15.1953 5.34375 15.1953 4.17188C15.1953 1.86719 14.2969 0.5 11.9531 0.5C10.7812 0.5 10.3516 1.98438 10.1562 3.15625C10 3.82031 9.88281 4.48438 9.49219 4.875C8.55469 5.77344 7.1875 8 6.32812 8.46875C6.25 8.50781 6.13281 8.54688 6.01562 8.54688C5.78125 8.23438 5.39062 8 5 8H1.25C0.546875 8 0 8.58594 0 9.25V19.25C0 19.9531 0.546875 20.5 1.25 20.5H5C5.66406 20.5 6.25 19.9531 6.25 19.25V18.9375C7.5 18.9375 10.1562 20.5391 13.1641 20.5C13.3594 20.5 14.6484 20.5391 14.7656 20.5C17.0703 20.5 18.3594 19.1328 18.2812 17.0234C18.8672 16.3203 19.1797 15.3047 19.0234 14.4062C19.4922 13.625 19.6094 12.5703 19.375 11.6719ZM1.25 19.25V9.25H5V19.25H1.25ZM17.8125 11.3203C18.4375 11.75 18.4375 13.625 17.5781 14.0938C18.0859 14.9531 17.6172 16.1641 16.9922 16.5156C17.3047 18.5469 16.25 19.25 14.7656 19.25C14.6094 19.2891 13.2812 19.25 13.1641 19.25C10.3125 19.25 7.89062 17.6875 6.25 17.6875V9.71875C7.69531 9.71875 9.0625 7.0625 10.3906 5.73438C11.5625 4.5625 11.1719 2.57031 11.9531 1.75C13.9453 1.75 13.9453 3.15625 13.9453 4.17188C13.9453 5.8125 12.7734 6.55469 12.7734 8.11719H17.1484C18.0469 8.11719 18.7109 8.9375 18.75 9.71875C18.75 10.5 18.4375 11.125 17.8125 11.3203ZM4.0625 17.375C4.0625 16.8672 3.63281 16.4375 3.125 16.4375C2.57812 16.4375 2.1875 16.8672 2.1875 17.375C2.1875 17.9219 2.57812 18.3125 3.125 18.3125C3.63281 18.3125 4.0625 17.9219 4.0625 17.375Z" fill="#1B1B1B"/>
</svg>
