<svg xmlns="http://www.w3.org/2000/svg" viewBox="0 0 81.16 81.16" class="writebymeIcon"><defs>
</defs>
<circle class="cls-1" fill="#fbce4a" cx="40.58" cy="40.58" r="40.58"/>
<path class="cls-2" fill="#181818" d="M66.36,29H56.25L45.68,52.61l-4.32-7.55h-1L46.6,32.47l4.25-3.12a.2.2,0,0,0-.13-.36H40.61L30,52.61l-4.32-7.55H23.66L31.08,58h3l5.85-11.9,4.88,8.52h0L46.72,58h3L62.24,32.47l4.25-3.12A.2.2,0,0,0,66.36,29Z"/>
<path class="cls-2" fill="#181818" d="M17.05,29H30.71a.22.22,0,0,1,.16.38l-9.56,7.09a.22.22,0,0,1-.35,0l-4.1-7.1A.22.22,0,0,1,17.05,29Z"/>
</svg>